<svg width="1280" height="360" viewBox="0 0 1280 360" fill="none" xmlns="http://www.w3.org/2000/svg" role="img" aria-label="Vihaan Singhal Header">
  <defs>
    <linearGradient id="bg" x1="32" y1="22" x2="1220" y2="338" gradientUnits="userSpaceOnUse">
      <stop stop-color="#070B17"/>
      <stop offset="0.52" stop-color="#0F1B3D"/>
      <stop offset="1" stop-color="#103460"/>
    </linearGradient>
    <radialGradient id="glowA" cx="0" cy="0" r="1" gradientUnits="userSpaceOnUse" gradientTransform="translate(1090 80) rotate(141) scale(330 220)">
      <stop stop-color="#44D3FF" stop-opacity="0.75"/>
      <stop offset="1" stop-color="#44D3FF" stop-opacity="0"/>
    </radialGradient>
    <radialGradient id="glowB" cx="0" cy="0" r="1" gradientUnits="userSpaceOnUse" gradientTransform="translate(280 300) rotate(-36) scale(360 210)">
      <stop stop-color="#4478FF" stop-opacity="0.55"/>
      <stop offset="1" stop-color="#4478FF" stop-opacity="0"/>
    </radialGradient>
    <pattern id="grid" width="34" height="34" patternUnits="userSpaceOnUse">
      <path d="M34 0H0V34" stroke="#7FA0FF" stroke-opacity="0.12"/>
    </pattern>
    <linearGradient id="chip" x1="0" y1="0" x2="1" y2="1">
      <stop stop-color="#15274A"/>
      <stop offset="1" stop-color="#0B1430"/>
    </linearGradient>
  </defs>

  <rect x="10" y="12" width="1260" height="336" rx="28" fill="url(#bg)"/>
  <rect x="10" y="12" width="1260" height="336" rx="28" fill="url(#grid)"/>
  <rect x="10" y="12" width="1260" height="336" rx="28" stroke="#2F4B86"/>

  <ellipse cx="1090" cy="80" rx="300" ry="185" fill="url(#glowA)"/>
  <ellipse cx="280" cy="300" rx="280" ry="170" fill="url(#glowB)"/>

  <g>
    <rect x="58" y="68" width="360" height="228" rx="18" fill="#0B122A" stroke="#314C8A"/>
    <rect x="58" y="68" width="360" height="34" rx="18" fill="#111D43"/>
    <circle cx="83" cy="85" r="5" fill="#FF6D7E"/>
    <circle cx="103" cy="85" r="5" fill="#F9C14E"/>
    <circle cx="123" cy="85" r="5" fill="#2CD5A6"/>

    <text x="80" y="130" fill="#8FBCFF" font-family="JetBrains Mono, Fira Code, monospace" font-size="17">class Engineer:</text>
    <text x="92" y="162" fill="#EAF2FF" font-family="JetBrains Mono, Fira Code, monospace" font-size="16">focus = "AI + Systems"</text>
    <text x="92" y="190" fill="#EAF2FF" font-family="JetBrains Mono, Fira Code, monospace" font-size="11">stack = ["Machine learning", "App-Dev", "React"]</text>
    <text x="92" y="218" fill="#EAF2FF" font-family="JetBrains Mono, Fira Code, monospace" font-size="16">mode = "ship + research"</text>
    <text x="92" y="246" fill="#8FBCFF" font-family="JetBrains Mono, Fira Code, monospace" font-size="16">return impact</text>
  </g>

  <text x="460" y="138" fill="#F4F8FF" font-family="Segoe UI, Inter, Arial, sans-serif" font-size="56" font-weight="700">Vihaan Singhal</text>
  <text x="460" y="176" fill="#AFCCFF" font-family="Segoe UI, Inter, Arial, sans-serif" font-size="24" font-weight="500">Computer Science and Business @ McMaster University</text>
  <text x="460" y="210" fill="#95B4F2" font-family="Segoe UI, Inter, Arial, sans-serif" font-size="19" font-weight="500">Applied AI | Full-Stack | App-Dev | PQ Crypto</text>

  <g transform="translate(460 236)">
    <rect width="240" height="38" rx="10" fill="url(#chip)" stroke="#2F4B86"/>
    <text x="18" y="25" fill="#D9E8FF" font-family="JetBrains Mono, Fira Code, monospace" font-size="14">Machine Learning &amp; Research</text>
  </g>

  <g transform="translate(712 236)">
    <rect width="132" height="38" rx="10" fill="url(#chip)" stroke="#2F4B86"/>
    <text x="22" y="25" fill="#D9E8FF" font-family="JetBrains Mono, Fira Code, monospace" font-size="15">Full-Stack</text>
  </g>

  <g transform="translate(856 236)">
    <rect width="184" height="38" rx="10" fill="url(#chip)" stroke="#2F4B86"/>
    <text x="18" y="25" fill="#D9E8FF" font-family="JetBrains Mono, Fira Code, monospace" font-size="14">App-Dev iOS/Android</text>
  </g>

  <g transform="translate(1052 236)">
    <rect width="138" height="38" rx="10" fill="url(#chip)" stroke="#2F4B86"/>
    <text x="26" y="25" fill="#D9E8FF" font-family="JetBrains Mono, Fira Code, monospace" font-size="15">PQ Crypto</text>
  </g>
</svg>
