<svg width="1200" height="520" viewBox="0 0 1200 520" fill="none" xmlns="http://www.w3.org/2000/svg">
  <defs>
    <linearGradient id="bg" x1="0" y1="0" x2="1200" y2="520" gradientUnits="userSpaceOnUse">
      <stop stop-color="#0A1230"/>
      <stop offset="1" stop-color="#162454"/>
    </linearGradient>
    <linearGradient id="panel" x1="0" y1="0" x2="0" y2="1">
      <stop stop-color="#1A295C"/>
      <stop offset="1" stop-color="#101A3D"/>
    </linearGradient>
  </defs>

  <rect width="1200" height="520" rx="22" fill="url(#bg)"/>
  <rect x="32" y="30" width="1136" height="460" rx="18" fill="url(#panel)" stroke="#324685"/>

  <rect x="52" y="52" width="240" height="38" rx="8" fill="#0B122C" stroke="#2D3F76"/>
  <text x="70" y="77" font-family="JetBrains Mono, monospace" font-size="20" fill="#E7EEFF">DINO RUNNER</text>

  <rect x="908" y="52" width="240" height="38" rx="8" fill="#0B122C" stroke="#2D3F76"/>
  <text x="928" y="77" font-family="JetBrains Mono, monospace" font-size="18" fill="#BFD2FF">Score: 042</text>

  <circle cx="1074" cy="136" r="24" fill="#EDF2FF" fill-opacity="0.9"/>
  <circle cx="180" cy="150" r="2" fill="#D7E4FF"/>
  <circle cx="264" cy="128" r="2" fill="#D7E4FF"/>
  <circle cx="352" cy="110" r="1.6" fill="#D7E4FF"/>
  <circle cx="920" cy="170" r="1.8" fill="#D7E4FF"/>

  <path d="M80 372H1120" stroke="#2F437F" stroke-width="4"/>
  <rect x="52" y="372" width="1096" height="88" fill="#131F47"/>

  <path d="M640 372L700 304L760 372" fill="#5D7ED6" fill-opacity="0.25"/>
  <path d="M760 372L830 286L900 372" fill="#5D7ED6" fill-opacity="0.24"/>
  <path d="M510 372L560 324L610 372" fill="#5D7ED6" fill-opacity="0.2"/>

  <rect x="182" y="300" width="54" height="68" fill="#55C2FF"/>
  <rect x="212" y="276" width="32" height="30" fill="#55C2FF"/>
  <rect x="194" y="330" width="12" height="38" fill="#55C2FF"/>
  <rect x="220" y="330" width="12" height="38" fill="#55C2FF"/>
  <rect x="224" y="284" width="8" height="8" fill="#0B1432"/>

  <rect x="820" y="286" width="28" height="86" fill="#8E7EFF"/>
  <rect x="790" y="316" width="26" height="56" fill="#4FC3FF"/>

  <rect x="104" y="404" width="992" height="54" rx="10" fill="#0A122E" stroke="#31457F"/>
  <text x="128" y="438" font-family="JetBrains Mono, monospace" font-size="24" fill="#EAF1FF">Click to Play Vihaan Runner Level 1</text>
  <text x="887" y="438" font-family="JetBrains Mono, monospace" font-size="18" fill="#8EB7FF">Space / ArrowUp</text>
</svg>
